<svg width="12" height="11" viewBox="0 0 12 11" fill="none" xmlns="http://www.w3.org/2000/svg">
<path d="M11.0021 3.57287L7.95834 3.12912L6.59792 0.370792C6.35417 -0.120874 5.64792 -0.127124 5.40209 0.370792L4.04167 3.12912L0.997921 3.57287C0.452088 3.65204 0.233338 4.32495 0.629171 4.71037L2.83125 6.8562L2.31042 9.88744C2.21667 10.4354 2.79375 10.8458 3.27709 10.5895L6 9.15828L8.72292 10.5895C9.20625 10.8437 9.78334 10.4354 9.68959 9.88744L9.16875 6.8562L11.3708 4.71037C11.7667 4.32495 11.5479 3.65204 11.0021 3.57287ZM8.09584 6.5062L8.58959 9.38953L6 8.02911L3.41042 9.38953L3.90417 6.5062L1.80834 4.46454L4.70417 4.0437L6 1.41871L7.29584 4.0437L10.1917 4.46454L8.09584 6.5062Z" fill="white"/>
</svg>
